<svg id="Layer_1" data-name="Layer 1" xmlns="http://www.w3.org/2000/svg" viewBox="0 0 191 47"><defs><style>.cls-1{fill:#e03a3e;}.cls-2{fill:#00539e;}</style></defs><title>Artboard 1</title><polyline class="cls-1" points="164.14 46.5 145.8 46.5 145.8 29.91 164.14 29.91 164.14 34.6 155.3 34.6 155.3 36.57 164.14 36.57 164.14 39.94 155.3 39.94 155.3 41.86 164.14 41.86 164.14 46.5"/><polyline class="cls-1" points="14.67 46.72 8.37 46.7 6.26 46.54 4.92 46.3 3.96 46.02 3.13 45.66 2.28 45.13 1.6 44.53 1.07 43.85 0.69 43.17 0.36 42.17 0.17 41.15 0.06 40.05 0.06 29.91 9.68 29.91 9.68 41.63 9.88 42.33 10.21 42.88 10.52 43.19 11.01 43.46 11.58 43.61 12.09 43.63 12.72 43.51 13.22 43.29 13.59 42.98 13.87 42.61 14.09 42.05 14.21 41.43 14.26 40.74 14.26 29.91 23.79 29.91 23.79 40.49 23.68 41.81 23.43 42.85 23.13 43.52 22.72 44.15 22.11 44.8 21.48 45.29 20.68 45.72 19.6 46.12 18.31 46.42 17.02 46.59 14.67 46.72"/><polyline class="cls-1" points="138.44 46.5 128.97 46.5 128.97 34.6 122.84 34.6 122.84 29.91 144.49 29.91 144.49 34.6 138.44 34.6 138.44 46.5"/><rect class="cls-1" x="112.12" y="29.91" width="9.51" height="16.58"/><polyline class="cls-1" points="101.65 46.5 101.65 39.29 98.01 46.5 93.93 46.5 90.09 39.13 90.09 46.5 81.36 46.5 81.36 29.91 92.21 29.91 95.91 37.28 99.53 29.91 110.42 29.91 110.42 46.5 101.65 46.5"/><rect class="cls-1" x="70.05" y="29.91" width="9.53" height="16.58"/><polyline class="cls-1" points="50.79 46.5 50.79 29.91 60.37 29.91 60.37 41.86 68.65 41.86 68.65 46.5 50.79 46.5"/><polyline class="cls-1" points="48.86 46.5 39.82 46.5 34.67 39.81 34.68 46.5 25.47 46.5 25.47 29.91 34.55 29.91 39.6 36.09 39.59 29.91 48.86 29.92 48.86 46.5"/><path class="cls-1" d="M177.53,43.13l.79-.15.57-.23.34-.3.31-.47.2-.67.14-1.4V37.62l-.05-1.22-.13-1.09-.18-.61-.3-.54-.46-.46-.51-.25-.69-.15-1.3-.06H175v9.93h1.27l1.22,0M165.82,46.5V29.91h15.51l1.13,0,1.77.19,1,.26.9.35.76.43.6.46.51.5.51.7.37.75.28.88.15.92.07,1.32,0,2.83-.1,1.7-.2,1.07-.3.88-.33.64-.35.43-.44.5-.78.59-.8.43-1,.35-.74.18-.71.09-1.37.11Z"/><polyline class="cls-2" points="176.54 27.52 163.81 27.54 160.17 27.42 158.33 27.2 157.18 26.92 156.13 26.51 155.34 26.08 154.62 25.58 153.81 24.77 153.28 23.97 152.87 23.09 152.54 21.92 152.43 21.09 152.4 19.89 168.04 19.88 168.26 21.09 168.54 21.63 168.81 21.93 169.29 22.26 169.95 22.49 170.57 22.61 171.78 22.58 172.49 22.44 173.09 22.19 173.64 21.81 174.02 21.34 174.25 20.79 174.29 20.58 174.27 19.92 174.12 19.5 173.82 19.03 173.35 18.63 172.75 18.32 172.04 18.15 171 18.03 160.47 17.98 158.6 17.8 157.6 17.61 156.53 17.25 155.7 16.87 154.79 16.29 154.06 15.61 153.58 15.01 153.13 14.27 152.75 13.4 152.42 12.17 152.25 10.99 152.18 9.58 152.25 8.13 152.44 6.92 152.8 5.7 153.25 4.7 153.76 3.92 154.49 3.09 155.28 2.43 156.1 1.9 157.16 1.39 158.32 0.99 159.53 0.69 161.44 0.41 163.41 0.29 167.38 0.29 168.09 0.31 172.32 0.28 178.24 0.31 179.48 0.34 181.4 0.52 182.93 0.79 183.93 1.09 184.76 1.47 185.66 2.05 186.42 2.76 186.9 3.38 187.33 4.17 187.64 4.95 187.88 6.03 187.98 7.35 187.93 7.91 173.29 7.91 173.13 6.99 172.93 6.45 172.63 6.02 172.26 5.72 171.73 5.47 170.9 5.27 169.86 5.25 168.97 5.39 168.34 5.62 167.85 5.92 167.55 6.24 167.32 6.64 167.21 7.17 167.25 7.75 167.42 8.28 167.7 8.67 168 8.95 168.4 9.2 169.14 9.43 170.04 9.55 176.09 9.6 179.83 9.63 182.31 9.78 183.99 10.05 185.05 10.35 186 10.78 186.95 11.41 187.59 12 188.17 12.75 188.55 13.4 188.93 14.26 189.2 15.28 189.4 16.53 189.45 17.14 189.42 19.11 189.27 20.64 189.03 21.72 188.7 22.63 188.27 23.49 187.79 24.18 187.13 24.92 186.33 25.58 185.28 26.21 184.16 26.69 182.95 27.05 181.71 27.29 179.13 27.5 176.54 27.52"/><polyline class="cls-2" points="126.42 27.24 126.42 7.91 116.46 7.91 116.46 0.41 151.59 0.41 151.59 7.91 141.86 7.91 141.86 27.24 126.42 27.24"/><path class="cls-2" d="M57.9,17.73l-3-9.18-3.13,9.18H57.9m3.25,9.51L60,23.71l-10.16,0-1.27,3.5h-15L43.12.41H67.05l3,8.48,6.66,18.35Z"/><path class="cls-2" d="M19.37,12.61l1-.12.78-.22.56-.31.5-.44.4-.59.25-.62.12-.61,0-.83-.15-.79-.22-.62-.36-.58-.48-.48-.6-.35-.67-.23-1.07-.14H15.49V12.6l3.5,0,.38,0M0,27.24V.41H28.17l2.41.13,1.3.12L33,1l.85.38.93.56.76.6L36,3l.61.74.46.73.28.59,0,.1.26.75.27,1.24L38,8.49l0,1.95-.17,1.48L37.53,13l-.41.94-.55.91-.71.79-.73.6-.92.61-1,.46-1.17.38-1.48.27-1.49.12-2.2,0H15.52l0,9.16Z"/><path class="cls-2" d="M97,12.6l.85-.14.8-.19.59-.28.63-.48.38-.53.25-.59.15-.66,0-.68-.07-.54-.17-.64-.31-.6-.43-.49-.55-.35-.71-.28-1.11-.21H92.71V12.6H97m2.77,14.64-7.1-9.91v9.91H77.63V.41h29.64l2,.2,1.19.28,1,.38.91.48.86.61L114,3l.71.91.43.75.33.86.23.92.14,1.1,0,2-.13,1.75-.24,1.3L115,13.67l-.56.88-.66.75L113,16l-.83.53-.93.43-.64.26,7.68,10Z"/><path class="cls-2" d="M186.79,28.21a1.9,1.9,0,1,0,1.9-1.88,1.9,1.9,0,0,0-1.9,1.88m1.4-.14h.53c.42,0,.6-.12.6-.35s-.17-.35-.55-.35h-.58Zm.65-1.06c.59,0,.91.24.91.67a.6.6,0,0,1-.28.57l-.24.09s.54.89.59,1h-.47c0-.11-.54-.95-.54-.95h-.61v.94h-.44V27Zm2.16,1.2a2.32,2.32,0,1,1-2.31-2.29A2.3,2.3,0,0,1,191,28.21Z"/></svg>